<?xml version="1.0" encoding="utf-8"?>
<!-- Generator: Adobe Illustrator 19.0.0, SVG Export Plug-In . SVG Version: 6.00 Build 0)  -->
<svg version="1.1" id="Слой_1" xmlns="http://www.w3.org/2000/svg" xmlns:xlink="http://www.w3.org/1999/xlink" x="0px" y="0px"
	 viewBox="-283 404.9 29 32" style="enable-background:new -283 404.9 29 32;" xml:space="preserve">
<style type="text/css">
	.st0{fill:#FDBD1F;}
</style>
<path id="path-1" class="st0" d="M-268.6,434.5c-0.8,0-1.6-0.3-2.2-0.9c-0.6-0.6-0.9-1.3-0.9-2.2c0-0.2,0.1-0.3,0.3-0.3
	c0.2,0,0.3,0.1,0.3,0.3c0,0.7,0.2,1.3,0.7,1.8c0.5,0.5,1.1,0.7,1.8,0.7c0.2,0,0.3,0.1,0.3,0.3C-268.3,434.4-268.4,434.5-268.6,434.5
	L-268.6,434.5z M-275.2,414.8c0-0.6,0.1-1.2,0.4-1.8c0.3-0.6,0.7-1.2,1.2-1.8c0.5-0.6,1.2-1,2.1-1.4c0.9-0.4,1.9-0.5,2.9-0.5
	c1.1,0,2,0.2,2.9,0.5c0.9,0.4,1.6,0.8,2.1,1.4c0.5,0.6,0.9,1.2,1.2,1.8c0.3,0.6,0.4,1.2,0.4,1.8c0,6.1,1.5,10.9,4.6,14.4h-22.5
	C-276.8,425.8-275.2,421-275.2,414.8L-275.2,414.8z M-255.8,427.7c-0.5-0.5-1-1.2-1.5-2.1c-0.5-0.8-0.9-1.8-1.3-2.7
	c-0.4-1-0.6-2.2-0.9-3.6c-0.2-1.4-0.3-2.9-0.3-4.5c0-1.8-0.7-3.4-2-4.9c-1.3-1.5-3.1-2.4-5.3-2.7c0.1-0.2,0.1-0.4,0.1-0.7
	c0-0.5-0.2-0.9-0.5-1.2c-0.3-0.3-0.7-0.5-1.2-0.5s-0.9,0.2-1.2,0.5c-0.3,0.3-0.5,0.7-0.5,1.2c0,0.2,0,0.5,0.1,0.7
	c-2.2,0.3-4,1.2-5.3,2.7s-2,3.1-2,4.9c0,1.6-0.1,3.1-0.3,4.5c-0.2,1.4-0.5,2.6-0.9,3.6c-0.4,1-0.8,1.9-1.3,2.7
	c-0.5,0.8-1,1.5-1.5,2.1c-0.5,0.5-1,1-1.6,1.5c0,0.6,0.2,1.1,0.7,1.6c0.4,0.4,1,0.7,1.6,0.7h7.8c0,1.2,0.4,2.3,1.3,3.1
	c0.9,0.9,1.9,1.3,3.1,1.3c1.2,0,2.3-0.4,3.1-1.3c0.9-0.9,1.3-1.9,1.3-3.1h7.8c0.6,0,1.1-0.2,1.6-0.7c0.4-0.4,0.7-1,0.7-1.6
	C-254.8,428.8-255.3,428.2-255.8,427.7z"/>
</svg>
